<?xml version="1.0" encoding="UTF-8" standalone="no"?>
<!DOCTYPE svg PUBLIC "-//W3C//DTD SVG 1.1//EN" "http://www.w3.org/Graphics/SVG/1.1/DTD/svg11.dtd">
<svg xmlns="http://www.w3.org/2000/svg" version="1.1" viewBox="0 0 138 139">
<g stroke-width="2.00" fill="none" stroke-linecap="butt">
<path stroke="#b5dcd5" vector-effect="non-scaling-stroke" d="
  M 32.14 43.92
  C 7.80 54.21 7.94 86.02 31.86 96.62
  A 1.01 0.99 9.6 0 1 32.46 97.45
  C 34.44 123.35 65.17 133.81 82.35 114.12
  A 1.00 0.99 -62.3 0 1 83.33 113.81
  C 109.41 119.79 127.69 94.62 114.82 71.24
  A 1.04 1.02 -45.6 0 1 114.82 70.27
  Q 124.71 52.24 114.11 37.83
  C 106.91 28.05 95.91 24.42 84.15 27.08
  A 0.99 0.99 0.0 0 1 83.16 26.74
  C 65.77 5.65 35.25 17.36 32.74 43.09
  A 1.02 1.02 0.0 0 1 32.14 43.92"
/>
<path stroke="#80b9cb" vector-effect="non-scaling-stroke" d="
  M 91.03 77.61
  L 96.64 71.34
  A 1.00 0.99 -45.7 0 0 96.63 70.00
  L 90.66 63.50
  Q 89.48 62.22 91.19 61.85
  Q 97.74 60.42 104.27 62.12
  A 0.99 0.98 29.5 0 0 105.23 61.86
  C 117.92 49.17 105.13 30.53 88.87 39.12
  A 0.99 0.99 0.0 0 0 88.34 39.91
  Q 87.74 46.32 84.56 51.86
  Q 83.68 53.39 82.82 51.85
  L 78.69 44.46
  A 1.01 1.01 0.0 0 0 77.40 44.03
  L 69.53 47.58
  Q 67.93 48.30 68.12 46.55
  Q 68.86 39.97 72.31 34.32
  A 0.99 0.99 0.0 0 0 72.33 33.31
  C 63.51 17.39 42.71 24.14 45.70 42.02
  A 1.01 1.01 0.0 0 0 46.29 42.78
  Q 52.19 45.32 56.46 50.08
  Q 57.62 51.37 55.91 51.72
  L 47.69 53.40
  A 0.99 0.99 0.0 0 0 46.90 54.47
  L 47.72 63.14
  Q 47.88 64.88 46.30 64.14
  Q 40.32 61.36 36.01 56.36
  A 0.99 0.98 -25.3 0 0 35.07 56.03
  C 26.71 57.55 19.91 64.62 22.14 73.35
  C 23.73 79.63 28.60 82.28 34.76 84.17
  A 0.99 0.99 0.0 0 0 35.80 83.87
  Q 40.08 78.95 46.00 76.30
  Q 47.60 75.57 47.40 77.32
  L 46.42 85.65
  A 1.01 1.01 0.0 0 0 47.21 86.75
  L 56.01 88.60
  Q 57.72 88.97 56.54 90.26
  Q 51.99 95.22 45.75 97.78
  A 1.01 1.00 82.8 0 0 45.14 98.57
  C 42.70 116.25 63.31 122.93 71.64 107.16
  A 0.99 0.97 -46.7 0 0 71.62 106.20
  Q 68.44 100.68 67.70 94.38
  Q 67.49 92.62 69.11 93.35
  L 76.65 96.79
  A 1.00 1.00 0.0 0 0 77.93 96.39
  L 82.46 88.72
  Q 83.36 87.20 84.20 88.75
  Q 87.40 94.59 87.87 101.29
  A 1.00 0.99 10.8 0 0 88.44 102.12
  C 105.07 109.96 117.21 92.36 104.92 79.41
  A 1.00 0.99 62.5 0 0 104.00 79.12
  Q 97.81 80.35 91.60 79.26
  Q 89.83 78.95 91.03 77.61"
/>
<path stroke="#80b9cb" vector-effect="non-scaling-stroke" d="
  M 78.26 69.92
  A 9.77 9.77 0.0 0 0 68.49 60.15
  A 9.77 9.77 0.0 0 0 58.72 69.92
  A 9.77 9.77 0.0 0 0 68.49 79.69
  A 9.77 9.77 0.0 0 0 78.26 69.92"
/>
</g>
<path fill="#6ab9ab" d="
  M 0.00 76.19
  L 0.00 62.94
  C 3.58 32.09 25.59 7.81 56.01 1.99
  C 100.17 -6.46 141.23 30.81 136.84 76.08
  C 132.17 124.21 81.35 152.81 37.96 131.41
  C 16.27 120.71 2.83 100.41 0.00 76.19
  Z
  M 32.14 43.92
  C 7.80 54.21 7.94 86.02 31.86 96.62
  A 1.01 0.99 9.6 0 1 32.46 97.45
  C 34.44 123.35 65.17 133.81 82.35 114.12
  A 1.00 0.99 -62.3 0 1 83.33 113.81
  C 109.41 119.79 127.69 94.62 114.82 71.24
  A 1.04 1.02 -45.6 0 1 114.82 70.27
  Q 124.71 52.24 114.11 37.83
  C 106.91 28.05 95.91 24.42 84.15 27.08
  A 0.99 0.99 0.0 0 1 83.16 26.74
  C 65.77 5.65 35.25 17.36 32.74 43.09
  A 1.02 1.02 0.0 0 1 32.14 43.92
  Z"
/>
<path fill="#ffffff" d="
  M 32.74 43.09
  C 35.25 17.36 65.77 5.65 83.16 26.74
  A 0.99 0.99 0.0 0 0 84.15 27.08
  C 95.91 24.42 106.91 28.05 114.11 37.83
  Q 124.71 52.24 114.82 70.27
  A 1.04 1.02 -45.6 0 0 114.82 71.24
  C 127.69 94.62 109.41 119.79 83.33 113.81
  A 1.00 0.99 -62.3 0 0 82.35 114.12
  C 65.17 133.81 34.44 123.35 32.46 97.45
  A 1.01 0.99 9.6 0 0 31.86 96.62
  C 7.94 86.02 7.80 54.21 32.14 43.92
  A 1.02 1.02 0.0 0 0 32.74 43.09
  Z
  M 91.03 77.61
  L 96.64 71.34
  A 1.00 0.99 -45.7 0 0 96.63 70.00
  L 90.66 63.50
  Q 89.48 62.22 91.19 61.85
  Q 97.74 60.42 104.27 62.12
  A 0.99 0.98 29.5 0 0 105.23 61.86
  C 117.92 49.17 105.13 30.53 88.87 39.12
  A 0.99 0.99 0.0 0 0 88.34 39.91
  Q 87.74 46.32 84.56 51.86
  Q 83.68 53.39 82.82 51.85
  L 78.69 44.46
  A 1.01 1.01 0.0 0 0 77.40 44.03
  L 69.53 47.58
  Q 67.93 48.30 68.12 46.55
  Q 68.86 39.97 72.31 34.32
  A 0.99 0.99 0.0 0 0 72.33 33.31
  C 63.51 17.39 42.71 24.14 45.70 42.02
  A 1.01 1.01 0.0 0 0 46.29 42.78
  Q 52.19 45.32 56.46 50.08
  Q 57.62 51.37 55.91 51.72
  L 47.69 53.40
  A 0.99 0.99 0.0 0 0 46.90 54.47
  L 47.72 63.14
  Q 47.88 64.88 46.30 64.14
  Q 40.32 61.36 36.01 56.36
  A 0.99 0.98 -25.3 0 0 35.07 56.03
  C 26.71 57.55 19.91 64.62 22.14 73.35
  C 23.73 79.63 28.60 82.28 34.76 84.17
  A 0.99 0.99 0.0 0 0 35.80 83.87
  Q 40.08 78.95 46.00 76.30
  Q 47.60 75.57 47.40 77.32
  L 46.42 85.65
  A 1.01 1.01 0.0 0 0 47.21 86.75
  L 56.01 88.60
  Q 57.72 88.97 56.54 90.26
  Q 51.99 95.22 45.75 97.78
  A 1.01 1.00 82.8 0 0 45.14 98.57
  C 42.70 116.25 63.31 122.93 71.64 107.16
  A 0.99 0.97 -46.7 0 0 71.62 106.20
  Q 68.44 100.68 67.70 94.38
  Q 67.49 92.62 69.11 93.35
  L 76.65 96.79
  A 1.00 1.00 0.0 0 0 77.93 96.39
  L 82.46 88.72
  Q 83.36 87.20 84.20 88.75
  Q 87.40 94.59 87.87 101.29
  A 1.00 0.99 10.8 0 0 88.44 102.12
  C 105.07 109.96 117.21 92.36 104.92 79.41
  A 1.00 0.99 62.5 0 0 104.00 79.12
  Q 97.81 80.35 91.60 79.26
  Q 89.83 78.95 91.03 77.61
  Z"
/>
<path fill="#007297" d="
  M 91.60 79.26
  Q 97.81 80.35 104.00 79.12
  A 1.00 0.99 62.5 0 1 104.92 79.41
  C 117.21 92.36 105.07 109.96 88.44 102.12
  A 1.00 0.99 10.8 0 1 87.87 101.29
  Q 87.40 94.59 84.20 88.75
  Q 83.36 87.20 82.46 88.72
  L 77.93 96.39
  A 1.00 1.00 0.0 0 1 76.65 96.79
  L 69.11 93.35
  Q 67.49 92.62 67.70 94.38
  Q 68.44 100.68 71.62 106.20
  A 0.99 0.97 -46.7 0 1 71.64 107.16
  C 63.31 122.93 42.70 116.25 45.14 98.57
  A 1.01 1.00 82.8 0 1 45.75 97.78
  Q 51.99 95.22 56.54 90.26
  Q 57.72 88.97 56.01 88.60
  L 47.21 86.75
  A 1.01 1.01 0.0 0 1 46.42 85.65
  L 47.40 77.32
  Q 47.60 75.57 46.00 76.30
  Q 40.08 78.95 35.80 83.87
  A 0.99 0.99 0.0 0 1 34.76 84.17
  C 28.60 82.28 23.73 79.63 22.14 73.35
  C 19.91 64.62 26.71 57.55 35.07 56.03
  A 0.99 0.98 -25.3 0 1 36.01 56.36
  Q 40.32 61.36 46.30 64.14
  Q 47.88 64.88 47.72 63.14
  L 46.90 54.47
  A 0.99 0.99 0.0 0 1 47.69 53.40
  L 55.91 51.72
  Q 57.62 51.37 56.46 50.08
  Q 52.19 45.32 46.29 42.78
  A 1.01 1.01 0.0 0 1 45.70 42.02
  C 42.71 24.14 63.51 17.39 72.33 33.31
  A 0.99 0.99 0.0 0 1 72.31 34.32
  Q 68.86 39.97 68.12 46.55
  Q 67.93 48.30 69.53 47.58
  L 77.40 44.03
  A 1.01 1.01 0.0 0 1 78.69 44.46
  L 82.82 51.85
  Q 83.68 53.39 84.56 51.86
  Q 87.74 46.32 88.34 39.91
  A 0.99 0.99 0.0 0 1 88.87 39.12
  C 105.13 30.53 117.92 49.17 105.23 61.86
  A 0.99 0.98 29.5 0 1 104.27 62.12
  Q 97.74 60.42 91.19 61.85
  Q 89.48 62.22 90.66 63.50
  L 96.63 70.00
  A 1.00 0.99 -45.7 0 1 96.64 71.34
  L 91.03 77.61
  Q 89.83 78.95 91.60 79.26
  Z
  M 78.26 69.92
  A 9.77 9.77 0.0 0 0 68.49 60.15
  A 9.77 9.77 0.0 0 0 58.72 69.92
  A 9.77 9.77 0.0 0 0 68.49 79.69
  A 9.77 9.77 0.0 0 0 78.26 69.92
  Z"
/>
<circle fill="#ffffff" cx="68.49" cy="69.92" r="9.77"/>
</svg>
